{
    "asset" : {
        "generator" : "Khronos glTF Blender I/O v3.3.32",
        "version" : "2.0"
    },
    "scene" : 0,
    "scenes" : [
        {
            "name" : "Scene",
            "nodes" : [
                0,
                1
            ]
        }
    ],
    "nodes" : [
        {
            "mesh" : 0,
            "name" : "BODY",
            "rotation" : [
                0.7071068286895752,
                0,
                0,
                0.7071067094802856
            ],
            "scale" : [
                3.0076727867126465,
                3.0076727867126465,
                3.0076727867126465
            ],
            "translation" : [
                0,
                9.87165355682373,
                -0.9510995149612427
            ]
        },
        {
            "name" : "\uc5e0\ud504\ud2f0",
            "scale" : [
                4.841835975646973,
                4.841835975646973,
                4.841835975646973
            ],
            "translation" : [
                4,
                12.897994995117188,
                0
            ]
        }
    ],
    "animations" : [
        {
            "channels" : [
                {
                    "sampler" : 0,
                    "target" : {
                        "node" : 0,
                        "path" : "rotation"
                    }
                }
            ],
            "name" : "BODYAction.001",
            "samplers" : [
                {
                    "input" : 4,
                    "interpolation" : "LINEAR",
                    "output" : 5
                }
            ]
        },
        {
            "channels" : [
                {
                    "sampler" : 0,
                    "target" : {
                        "node" : 1,
                        "path" : "translation"
                    }
                }
            ],
            "name" : "\uc5e0\ud504\ud2f0Action",
            "samplers" : [
                {
                    "input" : 4,
                    "interpolation" : "LINEAR",
                    "output" : 6
                }
            ]
        }
    ],
    "materials" : [
        {
            "alphaMode" : "BLEND",
            "doubleSided" : true,
            "name" : "Basic Glass",
            "pbrMetallicRoughness" : {}
        }
    ],
    "meshes" : [
        {
            "name" : "??",
            "primitives" : [
                {
                    "attributes" : {
                        "POSITION" : 0,
                        "NORMAL" : 1,
                        "TEXCOORD_0" : 2
                    },
                    "indices" : 3,
                    "material" : 0
                }
            ]
        }
    ],
    "accessors" : [
        {
            "bufferView" : 0,
            "componentType" : 5126,
            "count" : 45109,
            "max" : [
                2.454012632369995,
                2.605520725250244,
                2.2402353286743164
            ],
            "min" : [
                -2.5258829593658447,
                -2.481668472290039,
                -2.3188369274139404
            ],
            "type" : "VEC3"
        },
        {
            "bufferView" : 1,
            "componentType" : 5126,
            "count" : 45109,
            "type" : "VEC3"
        },
        {
            "bufferView" : 2,
            "componentType" : 5126,
            "count" : 45109,
            "type" : "VEC2"
        },
        {
            "bufferView" : 3,
            "componentType" : 5123,
            "count" : 236400,
            "type" : "SCALAR"
        },
        {
            "bufferView" : 4,
            "componentType" : 5126,
            "count" : 72,
            "max" : [
                2.9583333333333335
            ],
            "min" : [
                0
            ],
            "type" : "SCALAR"
        },
        {
            "bufferView" : 5,
            "componentType" : 5126,
            "count" : 72,
            "type" : "VEC4"
        },
        {
            "bufferView" : 6,
            "componentType" : 5126,
            "count" : 72,
            "type" : "VEC3"
        }
    ],
    "bufferViews" : [
        {
            "buffer" : 0,
            "byteLength" : 541308,
            "byteOffset" : 0,
            "target" : 34962
        },
        {
            "buffer" : 0,
            "byteLength" : 541308,
            "byteOffset" : 541308,
            "target" : 34962
        },
        {
            "buffer" : 0,
            "byteLength" : 360872,
            "byteOffset" : 1082616,
            "target" : 34962
        },
        {
            "buffer" : 0,
            "byteLength" : 472800,
            "byteOffset" : 1443488,
            "target" : 34963
        },
        {
            "buffer" : 0,
            "byteLength" : 288,
            "byteOffset" : 1916288
        },
        {
            "buffer" : 0,
            "byteLength" : 1152,
            "byteOffset" : 1916576
        },
        {
            "buffer" : 0,
            "byteLength" : 864,
            "byteOffset" : 1917728
        }
    ],
    "buffers" : [
        {
            "byteLength" : 1918592,
            "uri" : "data:application/octet-stream;base64,"
        }
    ]
}
