<?xml version="1.0" encoding="utf-8"?>
<!-- Generator: Adobe Illustrator 27.2.0, SVG Export Plug-In . SVG Version: 6.00 Build 0)  -->
<svg version="1.1" id="_레이어_1" xmlns="http://www.w3.org/2000/svg" xmlns:xlink="http://www.w3.org/1999/xlink" x="0px"
	 y="0px" viewBox="0 0 847.2 847.2" style="enable-background:new 0 0 847.2 847.2;" xml:space="preserve">
<style type="text/css">
	.st0{fill:#FFFFFF;}
</style>
<g>
	<path class="st0" d="M438.1,107.8L565.8,63c-19.6-24.7-52.7-34.5-82.6-24.5L351.5,82.6l57.7,24.3
		C418.3,110.8,428.7,111.1,438.1,107.8"/>
	<path class="st0" d="M329.2,375.6l38.3-16l-48-20.8c-20.4-8.2-38.6-9.4-52.2-0.1c-18.9,12.9-33.6,31.5-42.2,53.1l-91.2,230.4
		l28,44.3l95.6-220.2C271.3,414.4,297.1,389,329.2,375.6"/>
	<path class="st0" d="M101.2,418.4l54.6-1.8c9.4-0.3,17.6-6.3,20.8-15.1l18.1-49.5c11.8-32.3,37.2-58.1,69.4-70.4l25.3-9.7
		l135.1,52.3c9.3,3.6,19.6,3.5,28.8-0.4l240-100.1l-34.9-44l-212.9,84.8c-9.2,3.7-19.6,3.7-28.8,0l-116-46.5
		c-9.3-3.7-19.6-3.9-29-0.4l-25.4,9.3c-42.3,15.4-75.4,49.5-89.6,92.2l-14.2,42.8c-2.9,8.8-11.1,14.9-20.4,15l-49,0.9
		c-9.2,0.2-17.2,6.4-19.6,15.3L46.7,418c-8.1,29.3-3.4,60.9,12.9,86.6l21.7-70.8C83.8,424.9,91.9,418.7,101.2,418.4"/>
	<path class="st0" d="M113.9,326.8l20.2-66c10-32.6,35-58.6,67.2-69.9l72.6-25.5c9.4-3.3,19.8-3.1,29.1,0.5l115.4,45.3
		c9.3,3.6,19.6,3.7,28.9,0.1L628.5,142l-33.8-42.5L446,153.8c-9.4,3.4-19.7,3.2-29-0.5l-111.2-44.9c-9.3-3.7-19.6-4.1-29.1-0.9
		l-91.9,30.7c-42.2,14.1-74.8,48.6-86.6,91.5l-31,112.9l26.6-0.7C103.1,341.8,111.2,335.6,113.9,326.8"/>
	<path class="st0" d="M127.7,452.4c-9.3,0.2-17.5,6.2-20.4,15l-24.6,74l27.1,42.9l48.4-132.6L127.7,452.4z"/>
	<path class="st0" d="M794.7,351.5l-2.6-3.2L712,386.2c-8.7,4.1-14.7,12.5-15.9,22l-6.8,56.4l90.1-44.5
		C805.2,407.3,812.6,374.1,794.7,351.5"/>
	<path class="st0" d="M592.5,334.2l-13.6,100.5c-1.3,9.6-7.4,17.9-16.1,22l-131,61.9c-33.7,15.9-61.7,42.1-79.9,74.7l-14,25
		c-4.8,8.7-6.2,19-3.7,28.6l16.2,62.2l39.3-64c18.5-30.2,45.3-54.7,77.1-70.4L622,497.9c8.7-4.3,14.6-12.7,15.6-22.3l11.5-102.4
		c1.1-9.5,7.1-17.9,15.8-21.9l95.2-43.3L724,262.6l-115.3,50.1C600,316.5,593.8,324.7,592.5,334.2"/>
	<path class="st0" d="M214.9,645.4l-28.4,60.3l28.8,45.6l9.5-18.4c4.6-8.9,5.9-19.2,3.6-28.9L214.9,645.4L214.9,645.4z"/>
	<path class="st0" d="M321.3,734.6l-27.9-112.2c-2.4-9.7-1.2-20,3.4-28.9l25.6-49.6c16.1-31.2,42.4-56.2,74.3-70.8L517,418.6
		c8.8-4,14.9-12.3,16.1-21.8l6.9-54.2l-171.1,74.3c-37.5,16.3-68,45.9-85.5,82.9l-39.1,83.1c-4.3,9.1-5.3,19.4-2.9,29.1l26.9,109.1
		c2.4,9.7,1,19.9-3.9,28.6l-23.5,42c13.7,21.7,45.4,21.4,58.8-0.5l17.3-28.4C322.2,754.5,323.7,744.2,321.3,734.6"/>
	<path class="st0" d="M519.2,658.5l56.6-29.8l-11.8-6.3c-8.5-4.6-18.8-4.6-27.4-0.1l-24.7,13c-9.1,4.8-17.3,11.1-24.2,18.7l-61,67.3
		c-6.9,7.6-15.1,14-24.1,18.8l-24.9,13.3L342.9,772L316,812.6l98.5-52.5c9-4.8,17.2-11.2,24-18.9l56.8-63.7
		C502,669.7,510.2,663.3,519.2,658.5"/>
	<path class="st0" d="M394.5,724.5c9.1-4.8,17.1-11.3,23.7-19.1l31.4-37.3l-58,30.5l-28,42.2L394.5,724.5L394.5,724.5z"/>
	<path class="st0" d="M510.2,688.2l-40.4,42.4l138.7-74c32.5-17.3,61.3-41,84.6-69.6l2.7-3.3l-161,86
		C525.6,674.5,517.3,680.7,510.2,688.2"/>
	<path class="st0" d="M596.7,575.9l-19.8-11.3c-8.4-4.8-18.7-5.1-27.3-0.7l-62.1,31.4c-32,16.2-58.9,41.3-77.3,72.1l133.1-69.1
		c8.6-4.5,18.9-4.4,27.5,0.1l17.5,9.3c8.6,4.5,18.9,4.5,27.5,0l80.4-42.5c8.9-4.7,16.3-12,21.3-20.8l13.6-24.4l-107.2,56.4
		C615.4,580.8,605.1,580.7,596.7,575.9"/>
	<path class="st0" d="M605,551.3c8.2,5,18.5,5.4,27,0.9l100.3-52.1c9-4.7,16.4-11.9,21.3-20.7l14.3-25.7l-176.7,89.2L605,551.3
		L605,551.3z"/>
</g>
</svg>
